<?xml version="1.0" standalone="no"?><!DOCTYPE svg PUBLIC "-//W3C//DTD SVG 1.1//EN" "http://www.w3.org/Graphics/SVG/1.1/DTD/svg11.dtd"><svg t="1776415823549" class="icon" viewBox="0 0 1024 1024" version="1.1" xmlns="http://www.w3.org/2000/svg" p-id="5853" xmlns:xlink="http://www.w3.org/1999/xlink" width="200" height="200"><path d="M608 85.333333H810.666667a128 128 0 0 1 128 128v202.666667a32 32 0 0 1-64 0V213.333333a64 64 0 0 0-64-64h-202.666667a32 32 0 0 1 0-64zM448 117.333333A32 32 0 0 1 416 149.333333H213.333333a64 64 0 0 0-64 64v202.666667a32 32 0 0 1-64 0V213.333333a128 128 0 0 1 128-128h202.666667A32 32 0 0 1 448 117.333333z m128 789.333334a32 32 0 0 1 32-32H810.666667a64 64 0 0 0 64-64v-202.666667a32 32 0 0 1 64 0V810.666667a128 128 0 0 1-128 128h-202.666667a32 32 0 0 1-32-32zM416 938.666667H213.333333a128 128 0 0 1-128-128v-202.666667a32 32 0 0 1 64 0V810.666667a64 64 0 0 0 64 64h202.666667a32 32 0 0 1 0 64zM512 640a149.333333 149.333333 0 1 0 0-298.666667 149.333333 149.333333 0 0 0 0 298.666667z m162.346667-10.922667l62.997333 62.997334a32 32 0 0 1-45.269333 45.248l-66.218667-66.218667A212.330667 212.330667 0 0 1 512 704c-117.824 0-213.333333-95.509333-213.333333-213.333333s95.509333-213.333333 213.333333-213.333334 213.333333 95.509333 213.333333 213.333334a212.48 212.48 0 0 1-50.986666 138.410666z" fill="#333333" p-id="5854"></path></svg>