<?xml version="1.0" standalone="no"?><!DOCTYPE svg PUBLIC "-//W3C//DTD SVG 1.1//EN" "http://www.w3.org/Graphics/SVG/1.1/DTD/svg11.dtd"><svg t="1776415915608" class="icon" viewBox="0 0 1024 1024" version="1.1" xmlns="http://www.w3.org/2000/svg" p-id="6091" xmlns:xlink="http://www.w3.org/1999/xlink" width="200" height="200"><path d="M973.500632 744.717474v226.142315h-241.340632v-64.673684h176.666947v-161.468631h64.673685z m-860.321685 0v161.468631h189.062737v64.673684H48.505263v-226.142315h64.673684zM252.227368 646.736842v146.809263h519.545264v-138.832842H835.368421V862.315789H188.631579v-215.578947h63.595789zM673.684211 646.736842v53.894737H350.315789v-53.894737h323.368422z m284.56421-138.24v77.500632H64.673684V508.496842h893.574737zM698.906947 161.684211L835.368421 294.804211V431.157895h-63.595789V323.368421l-98.142316-95.717053H252.227368V423.612632H188.631579V161.684211h510.275368zM565.894737 323.368421v53.894737H350.315789V323.368421h215.578948zM302.241684 21.557895v64.673684L113.178947 86.177684 113.178947 277.342316H48.505263V21.557895h253.736421z m671.258948 0v255.784421h-64.673685V86.231579l-176.666947 0.053895V21.557895h241.340632z" fill="#ADADAD" p-id="6092"></path></svg>