<?xml version="1.0" standalone="no"?><!DOCTYPE svg PUBLIC "-//W3C//DTD SVG 1.1//EN" "http://www.w3.org/Graphics/SVG/1.1/DTD/svg11.dtd"><svg t="1776416080141" class="icon" viewBox="0 0 1024 1024" version="1.1" xmlns="http://www.w3.org/2000/svg" p-id="9447" xmlns:xlink="http://www.w3.org/1999/xlink" width="200" height="200"><path d="M978.1 281.5v566.8c0 71.6-58.3 129.9-129.9 129.9H175.8c-71.6 0-129.9-58.3-129.9-129.9V175.8c0-71.6 58.3-129.9 129.9-129.9h543.8V0H175.8C78.8 0 0 78.8 0 175.8v672.5C0 945.2 78.8 1024 175.8 1024h672.5c96.9 0 175.8-78.8 175.8-175.8V281.5h-46z" p-id="9448"></path><path d="M433.7 590.3c8.9 8.9 23.5 8.9 32.4 0l551.2-551.2c8.9-8.9 8.9-23.5 0-32.4-8.9-8.9-23.5-8.9-32.4 0L433.7 557.9c-8.9 8.9-8.9 23.5 0 32.4z" p-id="9449"></path></svg>